<?xml version="1.0" standalone="no"?>
<!DOCTYPE svg PUBLIC "-//W3C//DTD SVG 20010904//EN"
 "http://www.w3.org/TR/2001/REC-SVG-20010904/DTD/svg10.dtd">
<svg version="1.0" xmlns="http://www.w3.org/2000/svg"
 width="400.000000pt" height="400.000000pt" viewBox="0 0 400.000000 400.000000"
 preserveAspectRatio="xMidYMid meet">
<metadata>
Created by potrace 1.14, written by Peter Selinger 2001-2017
</metadata>
<g transform="translate(0.000000,400.000000) scale(0.100000,-0.100000)"
fill="#000000" stroke="none">
<path d="M1723 3154 c-143 -24 -345 -103 -484 -189 -105 -66 -399 -353 -399
-390 0 -5 -6 -16 -14 -24 -31 -35 -131 -259 -152 -341 -2 -8 -13 -51 -25 -95
-23 -86 -30 -283 -16 -455 11 -148 103 -388 212 -555 106 -163 200 -262 340
-356 201 -137 409 -217 625 -244 52 -6 231 -6 275 0 17 2 50 6 75 10 343 45
681 254 893 550 84 118 197 374 223 505 13 68 11 472 -3 538 -39 186 -154 426
-270 564 -222 264 -495 425 -818 483 -94 16 -360 16 -462 -1z m265 -317 c11
-13 122 -296 371 -942 62 -159 116 -299 121 -310 42 -92 190 -493 190 -516 0
-23 -16 -25 -170 -27 -89 -1 -143 3 -159 11 -27 13 -41 45 -126 282 -49 137
-77 217 -193 541 -22 61 -44 119 -50 129 -9 17 -11 16 -22 -5 -7 -13 -36 -94
-65 -179 -29 -86 -86 -248 -125 -361 -40 -113 -80 -228 -90 -255 -43 -125 -60
-153 -93 -158 -73 -11 -272 -7 -297 6 -29 15 -30 28 -6 82 10 22 65 164 123
315 96 253 143 374 279 720 27 69 49 127 50 130 0 3 4 14 9 25 4 11 39 101 77
200 82 213 134 325 152 325 8 0 18 -6 24 -13z"/>
</g>
</svg>
