 <svg  version="1.0" xmlns="http://www.w3.org/2000/svg"  width="300.000000pt" height="300.000000pt" viewBox="0 0 300.000000 300.000000"  preserveAspectRatio="xMidYMid meet"> 
 <defs>
  <linearGradient id="grad1" x1="0%" y1="0%" x2="100%" y2="0%">
    <stop offset="0%" style="stop-color:#6366f1;stop-opacity:1" />
    <stop offset="100%" style="stop-color:#60a5fa;stop-opacity:1" />
  </linearGradient>
</defs> 
 <g transform="translate(0.000000,300.000000) scale(0.100000,-0.100000)" fill="url(#grad1)" stroke="none"> <path d="M1285 2365 c-115 -20 -256 -77 -370 -150 -53 -34 -212 -184 -256 -241 -78 -101 -145 -260 -181 -424 -18 -85 -10 -354 12 -400 4 -8 20 -55 35 -103 45 -139 152 -306 263 -409 98 -91 257 -180 393 -222 352 -107 741 -9 999 253 129 129 205 264 267 466 14 49 18 95 18 245 0 181 -1 187 -32 286 -93 291 -301 521 -575 636 -82 35 -112 44 -213 64 -86 16 -265 16 -360 -1z m227 -280 c11 -27 46 -117 78 -200 56 -145 216 -556 355 -914 55 -140 65 -175 54 -182 -8 -5 -66 -9 -130 -9 -87 0 -119 3 -128 14 -6 8 -31 69 -55 137 -162 457 -207 583 -211 587 -5 5 -19 -28 -41 -93 -7 -22 -43 -125 -79 -230 -37 -104 -83 -235 -102 -290 -19 -55 -39 -105 -45 -112 -11 -14 -221 -19 -252 -7 -18 7 -20 27 -6 52 6 9 39 94 74 187 35 94 101 265 146 380 45 116 99 255 120 310 21 55 59 154 85 220 88 229 100 243 137 150z"/> </g> 
 </svg> 