 <svg  version="1.0" xmlns="http://www.w3.org/2000/svg"  width="300.000000pt" height="300.000000pt" viewBox="0 0 300.000000 300.000000"  preserveAspectRatio="xMidYMid meet">  
 <defs>
  <linearGradient id="grad1" x1="0%" y1="0%" x2="100%" y2="0%">
    <stop offset="0%" style="stop-color:#6366f1;stop-opacity:1" />
    <stop offset="100%" style="stop-color:#60a5fa;stop-opacity:1" />
  </linearGradient>
</defs> 
 <g transform="translate(0.000000,300.000000) scale(0.100000,-0.100000)" fill="url(#grad1)" stroke="none"> <path d="M1401 2243 c-30 -76 -83 -212 -118 -303 -35 -91 -88 -228 -118 -305 -30 -77 -84 -216 -120 -310 -36 -93 -70 -178 -75 -187 -6 -10 -10 -23 -10 -29 0 -6 -7 -25 -15 -42 -8 -18 -43 -108 -78 -200 -44 -114 -61 -170 -53 -173 7 -3 79 -3 161 -2 l150 3 33 95 c19 52 51 145 72 205 21 61 69 196 105 300 37 105 79 225 93 268 15 43 32 79 37 79 6 0 19 -26 31 -58 11 -33 40 -113 63 -179 24 -66 56 -156 71 -200 16 -44 49 -138 75 -210 25 -71 58 -164 72 -205 14 -41 30 -81 36 -87 11 -15 302 -19 311 -5 3 5 -11 49 -30 98 -19 49 -53 136 -75 194 -21 58 -43 114 -49 125 -10 21 -91 229 -165 425 -24 63 -67 174 -95 245 -28 72 -74 189 -101 260 -27 72 -56 144 -63 160 -7 17 -26 63 -41 103 -15 39 -32 72 -39 72 -6 0 -36 -62 -65 -137z"/> </g> </svg> 